<svg width="227" height="62" viewBox="0 0 227 62" fill="none" xmlns="http://www.w3.org/2000/svg">
<path d="M152.227 23.3157C147.59 23.9286 148.404 32.7178 153.277 31.7405C157.115 30.9686 156.467 22.7558 152.227 23.3157Z" fill="white"/>
<mask id="mask0_85_91" style="mask-type:luminance" maskUnits="userSpaceOnUse" x="131" y="12" width="35" height="40">
<path d="M131.469 12.6017H165.521V51.403H131.469V12.6017Z" fill="white"/>
</mask>
<g mask="url(#mask0_85_91)">
<path d="M161.822 18.6349C158.219 13.2746 154.119 12.2012 147.838 12.7213C134.067 13.8676 129.481 26.6986 132.229 39.4568C134.649 50.681 146.992 52.0857 156.4 51.168C167.27 50.1079 157.411 42.3887 157.78 38.4463C158.082 35.2162 164.621 36.3989 165.184 31.5521C165.699 27.1094 164.176 22.1301 161.822 18.6349ZM157.637 35.8556C153.28 39.1023 163.591 48.0936 159.059 49.4751C157.863 49.8395 150.981 49.7103 149.397 49.5513C132.881 47.8981 133.333 16.2264 150.274 14.0398C158.524 12.9731 163.279 21.2256 164.007 28.7029C164.608 34.8551 160.716 33.5597 157.637 35.8556Z" fill="white"/>
</g>
<path d="M16.6777 49.3248C13.2938 49.3248 10.3456 48.6059 7.83634 47.1648C5.33342 45.717 3.39977 43.6663 2.03541 41.016C0.67741 38.359 0 35.2448 0 31.6735C0 28.98 0.38164 26.5682 1.14492 24.438C1.91456 22.3111 3.02768 20.5022 4.47791 19.018C5.92814 17.5272 7.68368 16.3809 9.74454 15.5858C11.8118 14.7841 14.1239 14.3799 16.6777 14.3799C18.1279 14.3799 19.6958 14.5886 21.3846 15.0027C23.0797 15.4102 24.673 16.096 26.1678 17.0567C26.8706 17.5172 27.3286 18.0705 27.5417 18.7132C27.7611 19.3493 27.8025 19.9986 27.6689 20.6612C27.5417 21.3238 27.2682 21.9003 26.8547 22.384C26.4381 22.861 25.9197 23.1592 25.3027 23.2718C24.6921 23.3878 24.0115 23.2387 23.2673 22.8213C22.3005 22.2316 21.3082 21.7843 20.2905 21.4828C19.2792 21.1847 18.3187 21.0323 17.4028 21.0323C15.9525 21.0323 14.6741 21.2774 13.5737 21.7611C12.4796 22.2382 11.5446 22.924 10.775 23.8152C10.0021 24.7096 9.41696 25.8228 9.01942 27.1546C8.62824 28.4798 8.43424 30.0104 8.43424 31.7397C8.43424 35.1322 9.21342 37.8024 10.775 39.7438C12.3333 41.6885 14.5437 42.6592 17.4028 42.6592C18.3187 42.6592 19.2728 42.5233 20.2651 42.2484C21.2573 41.9767 22.256 41.5427 23.2673 40.9497C24.0115 40.5356 24.6826 40.3998 25.2773 40.5389C25.8688 40.6714 26.3618 40.9828 26.753 41.4665C27.1505 41.9436 27.3922 42.5134 27.4781 43.176C27.5703 43.8386 27.494 44.4946 27.2491 45.1373C27.0106 45.7733 26.5621 46.3001 25.9006 46.7142C24.4504 47.6352 22.9111 48.2978 21.2828 48.702C19.6608 49.1161 18.1279 49.3248 16.6777 49.3248Z" fill="white"/>
<path d="M43.2976 49.3248C40.9632 49.3248 38.8865 48.8544 37.0642 47.9201C35.2387 46.9759 33.8107 45.7038 32.7771 44.1036C31.7498 42.5068 31.2378 40.6979 31.2378 38.6836C31.2378 36.2122 31.8516 34.2542 33.0824 32.8131C34.31 31.3753 36.3072 30.335 39.0741 29.6989C41.8474 29.0562 45.562 28.7316 50.218 28.7316H53.5128V33.6745H50.2816C47.5593 33.6745 45.3839 33.8136 43.7556 34.0853C42.1272 34.3603 40.9728 34.8274 40.2954 35.49C39.6148 36.1526 39.2777 37.0802 39.2777 38.2728C39.2777 39.7835 39.7802 41.0226 40.7915 41.9833C41.7997 42.9375 43.2086 43.4145 45.015 43.4145C46.4652 43.4145 47.7501 43.0634 48.8696 42.3544C49.989 41.6487 50.8732 40.678 51.5283 39.439C52.1898 38.2033 52.5206 36.7853 52.5206 35.1852V27.2871C52.5206 25.0012 52.0372 23.3513 51.0703 22.3442C50.1035 21.3371 48.4784 20.8335 46.1981 20.8335C44.9259 20.8335 43.552 20.9925 42.0764 21.3106C40.6007 21.6286 39.0519 22.1786 37.4331 22.9538C36.5935 23.3712 35.8556 23.4839 35.2196 23.2983C34.5835 23.1128 34.0874 22.7384 33.7312 22.1719C33.3813 21.5988 33.2096 20.9726 33.2096 20.2902C33.2096 19.6011 33.3813 18.9252 33.7312 18.2627C34.0874 17.5934 34.6853 17.0965 35.5249 16.7785C37.5412 15.9138 39.4844 15.3009 41.3512 14.9365C43.2149 14.5654 44.9196 14.3799 46.4652 14.3799C49.6265 14.3799 52.228 14.8835 54.2634 15.8906C56.3052 16.8977 57.8317 18.4217 58.8431 20.4624C59.8608 22.4966 60.3696 25.1105 60.3696 28.3075V44.7927C60.3696 46.2073 60.0389 47.294 59.3774 48.0527C58.7159 48.8014 57.7681 49.1791 56.5405 49.1791C55.3097 49.1791 54.3556 48.8014 53.6782 48.0527C52.9976 47.294 52.6605 46.2073 52.6605 44.7927V41.493H53.1821C52.8768 43.1031 52.2693 44.4879 51.3629 45.6541C50.4629 46.8202 49.3307 47.728 47.9663 48.3707C46.6083 49.0068 45.0532 49.3248 43.2976 49.3248Z" fill="white"/>
<path d="M72.9457 49.1791C71.5877 49.1791 70.5446 48.8014 69.8163 48.0527C69.0944 47.294 68.735 46.2073 68.735 44.7927V18.8325C68.735 17.4212 69.0848 16.3478 69.7909 15.6123C70.4937 14.8801 71.4828 14.5124 72.7549 14.5124C74.0271 14.5124 75.013 14.8801 75.719 15.6123C76.4218 16.3478 76.7749 17.4212 76.7749 18.8325V23.1658H76.1134C76.7303 20.4194 77.9389 18.3389 79.7389 16.9242C81.5358 15.503 83.9306 14.6549 86.9265 14.3799C87.8488 14.2838 88.5834 14.5223 89.1273 15.0955C89.6775 15.6719 89.9955 16.5532 90.0814 17.7458C90.1736 18.8855 89.9224 19.8131 89.3308 20.5287C88.7361 21.2377 87.8456 21.6551 86.6593 21.7876L85.2091 21.9334C82.5281 22.2084 80.5054 23.0664 79.141 24.5042C77.783 25.9454 77.1056 27.9696 77.1056 30.5736V44.7927C77.1056 46.2073 76.7526 47.294 76.0497 48.0527C75.3437 48.8014 74.3101 49.1791 72.9457 49.1791Z" fill="white"/>
<path d="M98.6511 49.1791C97.3344 49.1791 96.3262 48.8014 95.6234 48.0527C94.9173 47.294 94.5675 46.2073 94.5675 44.7927V18.8325C94.5675 17.4212 94.9173 16.3478 95.6234 15.6123C96.3262 14.8801 97.3153 14.5124 98.5874 14.5124C99.8596 14.5124 100.845 14.8801 101.552 15.6123C102.254 16.3478 102.607 17.4212 102.607 18.8325V23.5104L101.882 21.7876C102.849 19.3692 104.353 17.5305 106.398 16.2749C108.44 15.0127 110.755 14.3799 113.344 14.3799C115.939 14.3799 118.07 14.8835 119.743 15.8906C121.413 16.8977 122.663 18.4217 123.496 20.4625C124.335 22.4966 124.755 25.0674 124.755 28.175V44.7927C124.755 46.2073 124.402 47.294 123.699 48.0527C122.993 48.8014 121.982 49.1791 120.659 49.1791C119.342 49.1791 118.321 48.8014 117.593 48.0527C116.871 47.294 116.512 46.2073 116.512 44.7927V28.5858C116.512 25.9818 116.035 24.0802 115.087 22.8875C114.146 21.6949 112.686 21.0985 110.711 21.0985C108.294 21.0985 106.367 21.8903 104.935 23.4706C103.511 25.0542 102.798 27.148 102.798 29.7519V44.7927C102.798 47.718 101.415 49.1791 98.6511 49.1791Z" fill="white"/>
<path d="M180.892 49.1791C179.575 49.1791 178.554 48.8014 177.826 48.0527C177.104 47.294 176.745 46.2074 176.745 44.7927V21.5226H173.704C172.652 21.5226 171.837 21.2377 171.262 20.6612C170.692 20.0881 170.409 19.2963 170.409 18.2892C170.409 17.239 170.692 16.4405 171.262 15.8906C171.837 15.334 172.652 15.0557 173.704 15.0557H179.111L176.745 17.3218V14.9895C176.745 10.2818 177.883 6.74687 180.167 4.38805C182.457 2.02923 185.751 0.644421 190.051 0.22699L192.29 0.0282134C193.171 -0.0678618 193.874 0.0812205 194.402 0.478774C194.927 0.869702 195.28 1.37327 195.458 1.98948C195.636 2.59906 195.655 3.22852 195.521 3.87123C195.394 4.51725 195.117 5.07714 194.694 5.55421C194.278 6.03127 193.744 6.29631 193.092 6.34931L192.163 6.41557C189.66 6.59447 187.838 7.25706 186.693 8.40334C185.548 9.54299 184.975 11.2856 184.975 13.6245V16.1556L183.919 15.0557H190.585C191.635 15.0557 192.446 15.334 193.015 15.8906C193.591 16.4405 193.88 17.239 193.88 18.2892C193.88 19.2963 193.591 20.0881 193.015 20.6612C192.446 21.2377 191.635 21.5226 190.585 21.5226H184.975V44.7927C184.975 47.7181 183.614 49.1791 180.892 49.1791Z" fill="white"/>
<path d="M206.065 61.543C205.098 61.543 204.303 61.2779 203.686 60.7479C203.075 60.2244 202.713 59.5287 202.605 58.6541C202.493 57.7861 202.636 56.8717 203.037 55.911L207.515 45.5481V49.1128L195.519 20.2107C195.128 19.2035 194.997 18.2693 195.124 17.4013C195.258 16.5267 195.665 15.8309 196.346 15.3075C197.023 14.7774 197.955 14.5124 199.144 14.5124C200.153 14.5124 200.964 14.7575 201.574 15.2412C202.191 15.7183 202.745 16.6194 203.228 17.9446L212.133 41.0822H210.148L219.244 17.8783C219.728 16.5995 220.3 15.7183 220.961 15.2412C221.623 14.7575 222.501 14.5124 223.595 14.5124C224.562 14.5124 225.328 14.7774 225.897 15.3075C226.473 15.8309 226.826 16.5134 226.953 17.3615C227.087 18.2096 226.934 19.1373 226.495 20.1444L210.479 58.2433C209.91 59.5221 209.296 60.3934 208.635 60.8539C207.979 61.3111 207.124 61.543 206.065 61.543Z" fill="white"/>
</svg>
